HIERARCHY
ROOT Hips
{
	OFFSET -49.260769 -43.699543 87.056984
	CHANNELS 6 Xposition Yposition Zposition Zrotation Yrotation Xrotation
	JOINT Spine
	{
		OFFSET 0.000000 2.080109 8.814247
		CHANNELS 6 Xposition Yposition Zposition Zrotation Yrotation Xrotation
		JOINT Spine1
		{
			OFFSET 0.000000 0.000000 8.844139
			CHANNELS 6 Xposition Yposition Zposition Zrotation Yrotation Xrotation
			JOINT Spine2
			{
				OFFSET 0.000000 0.000000 11.682266
				CHANNELS 6 Xposition Yposition Zposition Zrotation Yrotation Xrotation
				JOINT Spine3
				{
					OFFSET 0.000000 0.000004 11.746696
					CHANNELS 6 Xposition Yposition Zposition Zrotation Yrotation Xrotation
					JOINT Neck
					{
						OFFSET 0.000000 0.000000 17.658264
						CHANNELS 6 Xposition Yposition Zposition Zrotation Yrotation Xrotation
						JOINT Neck1
						{
							OFFSET 0.000000 0.000000 5.101517
							CHANNELS 6 Xposition Yposition Zposition Zrotation Yrotation Xrotation
							JOINT Head
							{
								OFFSET 0.000000 0.000000 5.101517
								CHANNELS 6 Xposition Yposition Zposition Zrotation Yrotation Xrotation
								JOINT HeadEnd
								{
									OFFSET 0.000000 0.000000 11.655090
									CHANNELS 6 Xposition Yposition Zposition Zrotation Yrotation Xrotation
									End Site
									{
										OFFSET 0.000000 0.000000 0.100006
									}
								}
							}
						}
					}
					JOINT RightShoulder
					{
						OFFSET -2.625389 0.000000 11.175217
						CHANNELS 6 Xposition Yposition Zposition Zrotation Yrotation Xrotation
						JOINT RightArm
						{
							OFFSET 0.000000 0.000000 10.434723
							CHANNELS 6 Xposition Yposition Zposition Zrotation Yrotation Xrotation
							JOINT RightForeArm
							{
								OFFSET 0.000000 0.000004 29.628418
								CHANNELS 6 Xposition Yposition Zposition Zrotation Yrotation Xrotation
								JOINT RightHand
								{
									OFFSET 0.000000 0.000000 22.857605
									CHANNELS 6 Xposition Yposition Zposition Zrotation Yrotation Xrotation
									JOINT RightHandThumb1
									{
										OFFSET -2.867321 -2.944290 3.959564
										CHANNELS 6 Xposition Yposition Zposition Zrotation Yrotation Xrotation
										JOINT RightHandThumb2
										{
											OFFSET 0.000000 0.000000 3.350403
											CHANNELS 6 Xposition Yposition Zposition Zrotation Yrotation Xrotation
											JOINT RightHandThumb3
											{
												OFFSET 0.000000 0.000000 3.756516
												CHANNELS 6 Xposition Yposition Zposition Zrotation Yrotation Xrotation
												JOINT RightHandThumb4
												{
													OFFSET 0.000000 0.000000 3.147339
													CHANNELS 6 Xposition Yposition Zposition Zrotation Yrotation Xrotation
													End Site
													{
														OFFSET 0.000000 0.000000 0.100006
													}
												}
											}
										}
									}
									JOINT RightHandIndex1
									{
										OFFSET -0.086754 -2.345280 10.030899
										CHANNELS 6 Xposition Yposition Zposition Zrotation Yrotation Xrotation
										JOINT RightHandIndex2
										{
											OFFSET 0.000000 0.000000 4.061096
											CHANNELS 6 Xposition Yposition Zposition Zrotation Yrotation Xrotation
											JOINT RightHandIndex3
											{
												OFFSET 0.000000 0.000000 3.248871
												CHANNELS 6 Xposition Yposition Zposition Zrotation Yrotation Xrotation
												JOINT RightHandIndex4
												{
													OFFSET 0.000000 0.000000 2.639709
													CHANNELS 6 Xposition Yposition Zposition Zrotation Yrotation Xrotation
													End Site
													{
														OFFSET 0.000000 0.000000 0.100006
													}
												}
											}
										}
									}
									JOINT RightHandMiddle1
									{
										OFFSET 0.104103 -0.006767 9.502945
										CHANNELS 6 Xposition Yposition Zposition Zrotation Yrotation Xrotation
										JOINT RightHandMiddle2
										{
											OFFSET 0.000000 0.000000 4.568726
											CHANNELS 6 Xposition Yposition Zposition Zrotation Yrotation Xrotation
											JOINT RightHandMiddle3
											{
												OFFSET 0.000000 0.000000 3.654984
												CHANNELS 6 Xposition Yposition Zposition Zrotation Yrotation Xrotation
												JOINT RightHandMiddle4
												{
													OFFSET 0.000000 0.000000 2.741241
													CHANNELS 6 Xposition Yposition Zposition Zrotation Yrotation Xrotation
													End Site
													{
														OFFSET 0.000000 0.000000 0.100006
													}
												}
											}
										}
									}
									JOINT RightHandRing1
									{
										OFFSET 0.086754 2.267441 8.921707
										CHANNELS 6 Xposition Yposition Zposition Zrotation Yrotation Xrotation
										JOINT RightHandRing2
										{
											OFFSET 0.000000 0.000000 4.061096
											CHANNELS 6 Xposition Yposition Zposition Zrotation Yrotation Xrotation
											JOINT RightHandRing3
											{
												OFFSET 0.000000 0.000000 3.654984
												CHANNELS 6 Xposition Yposition Zposition Zrotation Yrotation Xrotation
												JOINT RightHandRing4
												{
													OFFSET 0.000000 0.000000 2.741241
													CHANNELS 6 Xposition Yposition Zposition Zrotation Yrotation Xrotation
													End Site
													{
														OFFSET 0.000000 0.000000 0.100006
													}
												}
											}
										}
									}
									JOINT RightHandPinky1
									{
										OFFSET -0.173504 4.467197 7.976990
										CHANNELS 6 Xposition Yposition Zposition Zrotation Yrotation Xrotation
										JOINT RightHandPinky2
										{
											OFFSET 0.000000 0.000000 3.350403
											CHANNELS 6 Xposition Yposition Zposition Zrotation Yrotation Xrotation
											JOINT RightHandPinky3
											{
												OFFSET 0.000000 0.000000 2.842758
												CHANNELS 6 Xposition Yposition Zposition Zrotation Yrotation Xrotation
												JOINT RightHandPinky4
												{
													OFFSET 0.000000 0.000000 2.639709
													CHANNELS 6 Xposition Yposition Zposition Zrotation Yrotation Xrotation
													End Site
													{
														OFFSET 0.000000 0.000000 0.100006
													}
												}
											}
										}
									}
									JOINT RightForeArmEnd
									{
										OFFSET 0.000000 0.000000 0.000000
										CHANNELS 6 Xposition Yposition Zposition Zrotation Yrotation Xrotation
										End Site
										{
											OFFSET 0.000000 0.000000 0.100006
										}
									}
								}
								JOINT RightArmEnd
								{
									OFFSET 0.000000 0.000000 0.000000
									CHANNELS 6 Xposition Yposition Zposition Zrotation Yrotation Xrotation
									End Site
									{
										OFFSET 0.000000 0.000000 0.100006
									}
								}
							}
						}
					}
					JOINT LeftShoulder
					{
						OFFSET 2.625389 0.000000 11.175217
						CHANNELS 6 Xposition Yposition Zposition Zrotation Yrotation Xrotation
						JOINT LeftArm
						{
							OFFSET 0.000000 0.000000 10.813629
							CHANNELS 6 Xposition Yposition Zposition Zrotation Yrotation Xrotation
							JOINT LeftForeArm
							{
								OFFSET 0.000000 0.000004 28.724777
								CHANNELS 6 Xposition Yposition Zposition Zrotation Yrotation Xrotation
								JOINT LeftHand
								{
									OFFSET 0.644382 0.328873 25.716171
									CHANNELS 6 Xposition Yposition Zposition Zrotation Yrotation Xrotation
									JOINT LeftHandThumb1
									{
										OFFSET 2.867325 -2.944290 3.959564
										CHANNELS 6 Xposition Yposition Zposition Zrotation Yrotation Xrotation
										JOINT LeftHandThumb2
										{
											OFFSET 0.000000 0.000000 3.350403
											CHANNELS 6 Xposition Yposition Zposition Zrotation Yrotation Xrotation
											JOINT LeftHandThumb3
											{
												OFFSET 0.000000 0.000000 3.756516
												CHANNELS 6 Xposition Yposition Zposition Zrotation Yrotation Xrotation
												JOINT LeftHandThumb4
												{
													OFFSET 0.000000 0.000000 3.100006
													CHANNELS 6 Xposition Yposition Zposition Zrotation Yrotation Xrotation
													End Site
													{
														OFFSET 0.000000 0.000000 0.100006
													}
												}
											}
										}
									}
									JOINT LeftHandIndex1
									{
										OFFSET 0.086754 -2.345280 10.030899
										CHANNELS 6 Xposition Yposition Zposition Zrotation Yrotation Xrotation
										JOINT LeftHandIndex2
										{
											OFFSET 0.000000 0.000000 4.061096
											CHANNELS 6 Xposition Yposition Zposition Zrotation Yrotation Xrotation
											JOINT LeftHandIndex3
											{
												OFFSET 0.000000 0.000000 3.248871
												CHANNELS 6 Xposition Yposition Zposition Zrotation Yrotation Xrotation
												JOINT LeftHandIndex4
												{
													OFFSET 0.000000 0.000000 2.639709
													CHANNELS 6 Xposition Yposition Zposition Zrotation Yrotation Xrotation
													End Site
													{
														OFFSET 0.000000 0.000000 0.100006
													}
												}
											}
										}
									}
									JOINT LeftHandMiddle1
									{
										OFFSET -0.104103 -0.006767 9.502945
										CHANNELS 6 Xposition Yposition Zposition Zrotation Yrotation Xrotation
										JOINT LeftHandMiddle2
										{
											OFFSET 0.000000 0.000000 4.568726
											CHANNELS 6 Xposition Yposition Zposition Zrotation Yrotation Xrotation
											JOINT LeftHandMiddle3
											{
												OFFSET 0.000000 0.000000 3.654984
												CHANNELS 6 Xposition Yposition Zposition Zrotation Yrotation Xrotation
												JOINT LeftHandMiddle4
												{
													OFFSET 0.000000 0.000000 2.741241
													CHANNELS 6 Xposition Yposition Zposition Zrotation Yrotation Xrotation
													End Site
													{
														OFFSET 0.000000 0.000000 0.100006
													}
												}
											}
										}
									}
									JOINT LeftHandRing1
									{
										OFFSET -0.086754 2.267441 8.921707
										CHANNELS 6 Xposition Yposition Zposition Zrotation Yrotation Xrotation
										JOINT LeftHandRing2
										{
											OFFSET 0.000000 0.000000 4.061096
											CHANNELS 6 Xposition Yposition Zposition Zrotation Yrotation Xrotation
											JOINT LeftHandRing3
											{
												OFFSET 0.000000 0.000000 3.654984
												CHANNELS 6 Xposition Yposition Zposition Zrotation Yrotation Xrotation
												JOINT LeftHandRing4
												{
													OFFSET 0.000000 0.000000 2.741241
													CHANNELS 6 Xposition Yposition Zposition Zrotation Yrotation Xrotation
													End Site
													{
														OFFSET 0.000000 0.000000 0.100006
													}
												}
											}
										}
									}
									JOINT LeftHandPinky1
									{
										OFFSET 0.173504 4.467197 7.976990
										CHANNELS 6 Xposition Yposition Zposition Zrotation Yrotation Xrotation
										JOINT LeftHandPinky2
										{
											OFFSET 0.000000 0.000000 3.350403
											CHANNELS 6 Xposition Yposition Zposition Zrotation Yrotation Xrotation
											JOINT LeftHandPinky3
											{
												OFFSET 0.000000 0.000000 2.842758
												CHANNELS 6 Xposition Yposition Zposition Zrotation Yrotation Xrotation
												JOINT LeftHandPinky4
												{
													OFFSET 0.000000 0.000000 2.639709
													CHANNELS 6 Xposition Yposition Zposition Zrotation Yrotation Xrotation
													End Site
													{
														OFFSET 0.000000 0.000000 0.100006
													}
												}
											}
										}
									}
									JOINT LeftForeArmEnd
									{
										OFFSET 0.000000 0.000000 0.000000
										CHANNELS 6 Xposition Yposition Zposition Zrotation Yrotation Xrotation
										End Site
										{
											OFFSET 0.000000 0.000000 0.100006
										}
									}
								}
								JOINT LeftArmEnd
								{
									OFFSET 0.000000 0.000000 0.000000
									CHANNELS 6 Xposition Yposition Zposition Zrotation Yrotation Xrotation
									End Site
									{
										OFFSET 0.000000 0.000000 0.100006
									}
								}
							}
						}
					}
				}
			}
		}
	}
	JOINT RightUpLeg
	{
		OFFSET -11.289944 0.000000 0.000000
		CHANNELS 6 Xposition Yposition Zposition Zrotation Yrotation Xrotation
		JOINT RightLeg
		{
			OFFSET 0.000000 -0.000004 -38.200321
			CHANNELS 6 Xposition Yposition Zposition Zrotation Yrotation Xrotation
			JOINT RightFoot
			{
				OFFSET 0.000000 -0.000004 -39.900856
				CHANNELS 6 Xposition Yposition Zposition Zrotation Yrotation Xrotation
				JOINT RightToeBase
				{
					OFFSET 0.000000 -15.261639 0.000002
					CHANNELS 6 Xposition Yposition Zposition Zrotation Yrotation Xrotation
					JOINT RightToeBaseEnd
					{
						OFFSET 0.000000 -7.370712 0.000000
						CHANNELS 6 Xposition Yposition Zposition Zrotation Yrotation Xrotation
						End Site
						{
							OFFSET 0.000000 0.000000 0.100000
						}
					}
				}
				JOINT RightLegEnd
				{
					OFFSET 0.000000 0.000000 0.000000
					CHANNELS 6 Xposition Yposition Zposition Zrotation Yrotation Xrotation
					End Site
					{
						OFFSET 0.000000 0.000000 0.100000
					}
				}
			}
			JOINT RightUpLegEnd
			{
				OFFSET 0.000000 0.000000 0.000000
				CHANNELS 6 Xposition Yposition Zposition Zrotation Yrotation Xrotation
				End Site
				{
					OFFSET 0.000000 0.000000 0.099998
				}
			}
		}
	}
	JOINT LeftUpLeg
	{
		OFFSET 11.315662 0.000000 0.000000
		CHANNELS 6 Xposition Yposition Zposition Zrotation Yrotation Xrotation
		JOINT LeftLeg
		{
			OFFSET 0.000000 -0.000004 -38.200321
			CHANNELS 6 Xposition Yposition Zposition Zrotation Yrotation Xrotation
			JOINT LeftFoot
			{
				OFFSET 0.000000 -0.000004 -39.900856
				CHANNELS 6 Xposition Yposition Zposition Zrotation Yrotation Xrotation
				JOINT LeftToeBase
				{
					OFFSET 0.000000 -15.261639 0.000002
					CHANNELS 6 Xposition Yposition Zposition Zrotation Yrotation Xrotation
					JOINT LeftToeBaseEnd
					{
						OFFSET 0.000000 -7.539993 0.000000
						CHANNELS 6 Xposition Yposition Zposition Zrotation Yrotation Xrotation
						End Site
						{
							OFFSET 0.000000 0.000000 0.100000
						}
					}
				}
				JOINT LeftLegEnd
				{
					OFFSET 0.000000 0.000000 0.000000
					CHANNELS 6 Xposition Yposition Zposition Zrotation Yrotation Xrotation
					End Site
					{
						OFFSET 0.000000 0.000000 0.100000
					}
				}
			}
			JOINT LeftUpLegEnd
			{
				OFFSET 0.000000 0.000000 0.000000
				CHANNELS 6 Xposition Yposition Zposition Zrotation Yrotation Xrotation
				End Site
				{
					OFFSET 0.000000 0.000000 0.099998
				}
			}
		}
	}
}
MOTION
Frames: 2
Frame Time: 0.016667
-39.425858 -51.060509 85.771645 36.180308 5.173940 -16.821323 -0.000004 2.080106 8.814240 -1.078074 -3.936576 6.744218 0.000000 0.000001 8.844132 -1.471510 -5.476503 3.057002 0.000004 0.000003 11.682282 -0.474571 0.211531 15.400770 0.000001 0.000005 11.746717 0.065556 1.362448 1.069790 -0.000002 0.000000 17.658289 5.413508 -2.596025 13.668089 0.000002 0.000005 5.101554 2.714734 4.051808 -6.162767 0.000000 -0.000008 5.101527 2.765284 1.988417 -25.511685 0.000000 0.000001 11.655076 0.000000 0.000000 -0.000000 -2.625398 -0.000000 11.175214 8.130484 -94.106469 -0.921622 0.000003 -0.000002 10.434730 18.743216 -36.046019 -2.235783 0.000024 0.000003 29.628403 29.606049 -3.458720 99.879892 0.000008 -0.000011 22.857624 69.171839 -19.743428 5.434084 -2.867311 -2.944298 3.959576 31.716004 -16.574029 52.574104 -0.000000 0.000000 3.350416 -11.148178 7.773141 -20.314526 0.000000 -0.000008 3.756531 -7.443105 5.826047 -13.925958 0.000006 -0.000006 3.147325 0.000000 0.000001 -0.000001 -0.086749 -2.345292 10.030892 -10.762964 -11.483086 2.171114 0.000000 0.000019 4.061092 0.416212 -8.219827 1.163342 0.000016 0.000001 3.248883 -0.085593 -8.219862 1.164846 -0.000008 0.000001 2.639679 0.000001 -0.000001 -0.000001 0.104132 -0.006777 9.502944 -6.938295 -17.925389 -0.216570 0.000011 0.000000 4.568740 0.423339 -12.696270 0.678721 -0.000001 0.000008 3.654968 -0.074840 -12.696266 0.680230 0.000003 0.000005 2.741228 0.000000 0.000000 -0.000002 0.086774 2.267426 8.921668 -1.602216 -34.828822 -2.830962 0.000008 -0.000004 4.061087 -0.638394 -24.834353 -1.629177 0.000007 -0.000004 3.654993 0.359903 -24.834315 -1.628986 0.000002 -0.000003 2.741240 0.000003 -0.000001 0.000000 -0.173508 4.467185 7.976998 7.661040 -49.074626 -14.602919 0.000006 -0.000008 3.350408 0.547167 -35.455300 -7.956513 0.000007 -0.000007 2.842801 2.547145 -35.455300 -7.956521 0.000004 0.000012 2.639726 0.000001 0.000001 -0.000001 0.000005 -0.000008 0.000032 -0.000003 0.000003 0.000001 0.000002 -0.000002 0.000001 -0.000000 0.000002 0.000001 2.625391 -0.000004 11.175216 -6.919098 92.189235 -1.508828 -0.000010 -0.000006 10.813616 -2.929764 54.136964 11.197179 -0.000004 -0.000010 28.724760 -25.330417 2.544638 113.677085 0.644365 0.328880 25.716141 -58.480005 10.936279 13.623814 2.867323 -2.944300 3.959599 -31.666984 16.919917 52.039768 -0.000003 -0.000011 3.350405 11.909750 -8.109666 -21.599375 0.000002 0.000013 3.756547 7.939302 -6.118381 -14.796823 -0.000001 0.000004 3.100021 0.000000 0.000001 0.000002 0.086761 -2.345271 10.030940 -5.491512 17.257660 -8.947096 0.000003 0.000004 4.061114 0.290855 12.944173 -1.850926 0.000006 -0.000003 3.248869 -0.210011 12.944345 -1.851131 0.000001 -0.000001 2.639743 -0.000001 0.000002 -0.000002 -0.104099 -0.006748 9.502972 1.139545 25.784738 -9.007862 0.000006 0.000005 4.568778 0.333078 18.676712 -1.015076 0.000020 0.000003 3.655006 -0.166937 18.676848 -1.013965 -0.000007 -0.000021 2.741259 0.000002 0.000002 -0.000001 -0.086743 2.267457 8.921739 22.194375 54.110702 14.762086 0.000013 0.000005 4.061101 0.015725 39.325794 2.852637 0.000009 -0.000004 3.655006 1.017453 39.325856 2.857909 0.000004 -0.000001 2.741274 -0.000000 0.000003 0.000000 0.173520 4.467199 7.977021 73.458889 66.032452 71.944753 -0.000006 -0.000008 3.350411 7.153627 56.370487 16.992718 0.000006 -0.000003 2.842783 9.153534 56.370296 16.992280 0.000006 -0.000001 2.639740 0.000000 -0.000000 -0.000000 0.000001 0.000015 0.000030 0.000001 -0.000000 0.000000 -0.000010 0.000006 0.000028 -0.000001 -0.000000 0.000003 -11.289948 -0.000004 -0.000000 -17.616750 -4.221036 20.333191 0.000006 -0.000010 -38.200321 -0.618506 0.131634 12.014707 -0.000002 -0.000005 -39.900852 -22.478861 5.387228 11.760286 -0.000002 -15.261628 -0.000002 -1.126524 0.329805 -28.692692 0.000000 -7.370720 -0.000001 -0.000000 -0.000001 -0.000000 -0.000004 0.000004 -0.000003 -0.000000 0.000000 0.000001 -0.000004 -0.000000 -0.000006 0.000001 0.000000 -0.000001 11.315650 -0.000010 0.000002 -5.474258 -18.135167 8.611663 -0.000007 -0.000016 -38.200310 1.229452 -0.603982 26.159146 -0.000010 -0.000005 -39.900864 -3.411486 7.337322 12.818208 -0.000000 -15.261645 0.000006 0.961286 -0.430618 -29.927205 0.000003 -7.539993 -0.000000 0.000000 -0.000000 0.000000 0.000003 0.000001 0.000002 -0.000001 -0.000001 0.000003 -0.000002 0.000001 -0.000001 -0.000002 -0.000001 0.000001 
-39.056671 -50.977509 85.760208 36.098011 5.249199 -16.965669 -0.000003 2.080114 8.814234 -1.077418 -3.931593 6.768275 -0.000001 -0.000001 8.844127 -1.441311 -5.328240 2.972025 0.000002 -0.000004 11.682277 -0.469372 0.104077 15.358507 -0.000003 0.000002 11.746687 0.071072 1.346021 1.175002 -0.000005 -0.000005 17.658272 5.423995 -2.663845 13.917573 -0.000004 -0.000001 5.101543 2.729160 4.010425 -6.004479 0.000002 0.000003 5.101529 2.795868 1.966186 -25.485331 -0.000001 0.000001 11.655089 -0.000000 -0.000000 0.000001 -2.625392 0.000003 11.175221 8.133512 -94.123811 -0.922022 0.000021 0.000007 10.434731 18.324491 -36.190345 -1.783808 0.000017 -0.000006 29.628408 29.707723 -3.464225 99.634633 0.000005 -0.000005 22.857588 69.303607 -19.550233 5.363032 -2.867325 -2.944294 3.959564 31.716007 -16.574023 52.574148 0.000013 0.000010 3.350410 -11.148177 7.773133 -20.314554 -0.000003 -0.000006 3.756536 -7.443106 5.826037 -13.925977 0.000019 -0.000002 3.147356 0.000000 0.000001 -0.000001 -0.086757 -2.345287 10.030898 -10.780346 -11.534273 2.420876 0.000001 -0.000004 4.061082 0.414728 -8.281761 1.172206 -0.000017 -0.000021 3.248877 -0.086871 -8.281392 1.172515 0.000016 -0.000007 2.639696 0.000002 0.000000 -0.000001 0.104099 -0.006783 9.502948 -6.956666 -17.995933 0.021669 0.000016 -0.000006 4.568738 0.422518 -12.756613 0.681357 0.000020 -0.000004 3.654983 -0.075960 -12.756866 0.681792 -0.000020 -0.000004 2.741209 0.000000 0.000001 0.000005 0.086771 2.267433 8.921693 -1.598608 -34.850118 -2.633879 0.000017 -0.000005 4.061120 -0.638130 -24.838254 -1.628935 0.000027 0.000013 3.654976 0.360054 -24.838285 -1.629611 -0.000001 -0.000010 2.741244 -0.000003 0.000001 -0.000003 -0.173515 4.467185 7.976981 7.679913 -48.991031 -14.407468 0.000009 -0.000014 3.350405 0.536766 -35.368594 -7.933473 0.000020 -0.000016 2.842753 2.535867 -35.368567 -7.932957 0.000009 -0.000007 2.639708 -0.000001 0.000001 0.000004 -0.000000 -0.000007 0.000001 -0.000003 0.000000 -0.000001 0.000004 0.000000 0.000002 0.000001 0.000002 -0.000001 2.625390 0.000003 11.175220 -6.850161 92.186735 -1.538486 -0.000008 -0.000001 10.813633 -2.625019 54.031670 11.507552 -0.000004 -0.000003 28.724794 -25.385214 2.588048 113.366988 0.644377 0.328886 25.716139 -58.483037 10.765584 13.279984 2.867327 -2.944313 3.959573 -31.666984 16.919886 52.039771 -0.000012 0.000002 3.350411 11.909737 -8.109634 -21.599389 -0.000003 0.000007 3.756513 7.939296 -6.118425 -14.796824 0.000007 0.000005 3.100035 -0.000001 -0.000003 -0.000001 0.086760 -2.345280 10.030918 -5.476528 17.384752 -8.878388 0.000001 0.000004 4.061116 0.287119 13.025673 -1.863206 -0.000001 -0.000009 3.248928 -0.212693 13.025627 -1.863159 -0.000008 -0.000007 2.639723 -0.000000 -0.000002 0.000000 -0.104093 -0.006765 9.502938 1.152722 25.864569 -8.928580 -0.000001 0.000001 4.568741 0.331012 18.730141 -1.018468 0.000010 -0.000003 3.655000 -0.169006 18.730136 -1.018519 -0.000004 -0.000004 2.741242 0.000003 -0.000003 -0.000004 -0.086729 2.267438 8.921705 22.159318 54.054868 14.812607 0.000014 0.000009 4.061094 0.016060 39.288573 2.852830 0.000026 0.000007 3.655005 1.017499 39.288648 2.857916 0.000003 0.000006 2.741239 -0.000002 -0.000002 0.000002 0.173538 4.467188 7.976993 73.222141 66.001183 71.908744 0.000023 -0.000005 3.350403 7.132273 56.332450 16.966888 0.000003 -0.000003 2.842738 9.132270 56.332456 16.966116 0.000000 -0.000002 2.639725 -0.000001 0.000000 0.000000 0.000009 -0.000003 0.000029 -0.000000 0.000000 0.000003 -0.000008 0.000005 -0.000001 -0.000002 0.000001 0.000002 -11.289945 0.000006 -0.000015 -17.510901 -4.001518 20.490612 -0.000000 -0.000007 -38.200317 -0.644336 0.137824 12.066946 -0.000001 0.000008 -39.900860 -22.388737 5.117460 11.766834 -0.000005 -15.261630 -0.000004 -1.110806 0.377276 -28.617267 0.000004 -7.370712 0.000001 0.000000 0.000001 -0.000000 -0.000004 0.000004 -0.000002 0.000000 -0.000000 0.000001 0.000000 0.000004 0.000000 0.000001 -0.000000 -0.000000 11.315658 -0.000006 0.000009 -5.221433 -18.014885 8.930096 0.000003 -0.000006 -38.200317 1.276830 -0.623948 26.039244 -0.000008 -0.000002 -39.900856 -3.529925 7.038279 12.256688 0.000005 -15.261640 0.000008 0.914333 -0.440107 -29.601664 0.000003 -7.539985 -0.000000 -0.000001 0.000001 -0.000000 0.000003 0.000001 0.000001 -0.000000 0.000001 -0.000001 0.000003 0.000001 0.000012 -0.000001 0.000000 -0.000000 
